<!DOCTYPE svg PUBLIC "-//W3C//DTD SVG 1.1//EN" "http://www.w3.org/Graphics/SVG/1.1/DTD/svg11.dtd">
<!-- Uploaded to: SVG Repo, www.svgrepo.com, Transformed by: SVG Repo Mixer Tools -->
<svg fill="#888888" width="800px" height="800px" viewBox="0 0 22 22" xmlns="http://www.w3.org/2000/svg" id="memory-pickaxe" style="--darkreader-inline-fill: #5b6367; --darkreader-inline-stroke: #9d9488;" stroke="#888888" data-darkreader-inline-fill="" data-darkreader-inline-stroke="">
<g id="SVGRepo_bgCarrier" stroke-width="0"/>
<g id="SVGRepo_tracerCarrier" stroke-linecap="round" stroke-linejoin="round"/>
<g id="SVGRepo_iconCarrier">
<path d="M8 2H11V3H13V4H15V5H17V7H18V9H19V11H20V14H18V12H17V11H16V10H14V9H13V8H12V6H11V5H10V4H8M11 9H12V10H13V11H12V12H11V13H10V14H9V15H8V16H7V17H6V18H5V19H4V20H3V21H2V20H1V19H2V18H3V17H4V16H5V15H6V14H7V13H8V12H9V11H10V10H11"/>
</g>
</svg>